<?xml version="1.0" standalone="no"?><!DOCTYPE svg PUBLIC "-//W3C//DTD SVG 1.1//EN" "http://www.w3.org/Graphics/SVG/1.1/DTD/svg11.dtd"><svg t="1616478323890" class="icon" viewBox="0 0 1024 1024" version="1.1" xmlns="http://www.w3.org/2000/svg" p-id="8691" xmlns:xlink="http://www.w3.org/1999/xlink" width="200" height="200"><defs><style type="text/css"></style></defs><path d="M493.483525 739.465034H341.6244a38.845298 38.845298 0 0 0-38.537544 38.366571 38.161401 38.161401 0 0 0 38.537544 38.400765h151.859125a38.36657 38.36657 0 1 0 0-76.767336z m190.39667-189.678579H341.6244a38.845298 38.845298 0 0 0-38.537544 38.400766 38.127207 38.127207 0 0 0 38.537544 38.36657h342.255795a38.36657 38.36657 0 1 0 0-76.767336z m0-189.644384H341.6244a38.36657 38.36657 0 1 0 0 76.767336h342.255795a38.879492 38.879492 0 0 0 38.537544-38.36657 39.631778 39.631778 0 0 0-38.571739-38.400766z" p-id="8692" fill="#0099ff"></path><path d="M759.79266 75.641301h-27.355843A111.68023 111.68023 0 0 0 625.920002 0.002394H398.114216a113.184802 113.184802 0 0 0-106.516815 75.638907h-27.355843A191.18315 191.18315 0 0 0 73.844888 265.285685V834.355616a191.18315 191.18315 0 0 0 190.39667 189.644384h495.243349A191.18315 191.18315 0 0 0 949.881577 834.355616V265.388269a190.430865 190.430865 0 0 0-190.088917-189.746968z m-361.50747 0h227.805786a38.36657 38.36657 0 1 1 0 76.767335H398.28519a38.845298 38.845298 0 0 1-38.537544-38.36657 38.127207 38.127207 0 0 1 38.537544-38.400765z m475.991675 758.645925a114.655178 114.655178 0 0 1-114.45001 114.005478H264.583506a114.655178 114.655178 0 0 1-114.45001-114.005478V265.319879a114.655178 114.655178 0 0 1 114.45001-114.005477h27.355843a111.68023 111.68023 0 0 0 106.516815 75.638907h227.805786a113.184802 113.184802 0 0 0 106.516815-75.638907h27.355843a114.655178 114.655178 0 0 1 114.45001 114.005477V834.355616z" p-id="8693" fill="#0099ff"></path></svg>