<?xml version="1.0" standalone="no"?><!DOCTYPE svg PUBLIC "-//W3C//DTD SVG 1.1//EN" "http://www.w3.org/Graphics/SVG/1.1/DTD/svg11.dtd"><svg t="1618330088571" class="icon" viewBox="0 0 1024 1024" version="1.1" xmlns="http://www.w3.org/2000/svg" p-id="3699" xmlns:xlink="http://www.w3.org/1999/xlink" width="200" height="200"><defs><style type="text/css"></style></defs><path d="M512.911 1021.999c-68.712 0-135.387-13.465-198.17-40.02-60.625-25.643-115.066-62.346-161.81-109.089C106.188 826.146 69.485 771.706 43.842 711.08c-26.555-62.783-40.02-129.457-40.02-198.17 0-68.712 13.465-135.387 40.02-198.17 25.643-60.626 62.345-115.066 109.089-161.81 46.743-46.744 101.184-83.446 161.81-109.089 62.784-26.556 129.458-40.02 198.17-40.02 68.713 0 135.387 13.464 198.17 40.02 60.626 25.643 115.066 62.345 161.811 109.089 46.743 46.744 83.446 101.184 109.089 161.81 26.555 62.784 40.02 129.458 40.02 198.17 0 68.713-13.465 135.387-40.02 198.17-25.643 60.626-62.346 115.066-109.089 161.811-46.744 46.743-101.185 83.446-161.811 109.089C648.298 1008.534 581.624 1021.999 512.911 1021.999zM512.911 67.821c-245.423 0-445.089 199.666-445.089 445.089 0 245.423 199.666 445.089 445.089 445.089S958 758.333 958 512.91C958 267.487 758.334 67.821 512.911 67.821z" p-id="3700" fill="#d81e06"></path><path d="M510 671c-17.673 0-32-14.327-32-32L478 206c0-17.673 14.327-32 32-32s32 14.327 32 32l0 433C542 656.673 527.673 671 510 671z" p-id="3701" fill="#d81e06"></path><path d="M510.5 797.5m-31.5 0a31.5 31.5 0 1 0 63 0 31.5 31.5 0 1 0-63 0Z" p-id="3702" fill="#d81e06"></path></svg>