<?xml version="1.0" standalone="no"?><!DOCTYPE svg PUBLIC "-//W3C//DTD SVG 1.1//EN" "http://www.w3.org/Graphics/SVG/1.1/DTD/svg11.dtd"><svg t="1621326056642" class="icon" viewBox="0 0 1024 1024" version="1.1" xmlns="http://www.w3.org/2000/svg" p-id="2401" xmlns:xlink="http://www.w3.org/1999/xlink" width="20" height="20"><defs><style type="text/css"></style></defs><path d="M1021.701044 385.106282c-1.576456-14.371339-13.747927-25.556904-28.538526-25.556904-14.788607 0-26.961075 11.185565-28.535539 25.556904l-0.184235 0 0 498.48162c0 45.755054-37.220484 82.97255-82.973546 82.97255L144.285518 966.560453c-45.749079 0-82.971555-37.217497-82.971555-82.97255L61.313963 140.418073c0-45.752066 37.222476-82.973546 82.971555-82.973546l494.903474 0 0-0.04083c15.495672-0.420255 27.937023-13.082689 27.937023-28.680935s-12.441351-28.261675-27.937023-28.680935L639.188992 0 144.285518 0C66.85994 0 3.870432 62.990503 3.870432 140.415085l0 743.171821c0 77.424582 62.989507 140.413094 140.415085 140.413094l737.18368 0c77.426574 0 140.415085-62.988512 140.415085-140.413094l0-498.480624L1021.701044 385.106282z" p-id="2402"></path><path d="M282.007782 685.917505l-0.130458 0.53478c-2.351239 9.9726-4.37683 28.630146 8.48876 41.486773 7.976885 7.989831 18.186501 10.239492 27.163235 10.239492 5.478258 0 10.502401-0.840511 14.278724-1.725835l156.881726-41.424034L988.688093 195.030357c17.481428-17.479436 27.107467-40.718961 27.107467-65.437346 0-24.720377-9.627035-47.960897-27.107467-65.439337l-34.602353-34.602353c-36.086193-36.082209-94.795469-36.092168-130.882658-0.000996L323.157953 529.596451 282.007782 685.917505zM369.286456 576.789535l72.245084 72.237117-97.152684 24.908595L369.286456 576.789535zM403.861921 530.12426l390.7628-390.759813 84.248255 84.247259L488.111171 614.37351 403.861921 530.12426zM913.466366 70.165716l34.604345 34.604345c13.687179 13.687179 13.687179 35.955735 0 49.645902l-28.582344 28.578361-84.243275-84.247259 28.578361-28.580352C877.513619 56.474553 899.786157 56.483516 913.466366 70.165716z" p-id="2403"></path></svg>