<?xml version="1.0" standalone="no"?><!DOCTYPE svg PUBLIC "-//W3C//DTD SVG 1.1//EN" "http://www.w3.org/Graphics/SVG/1.1/DTD/svg11.dtd"><svg t="1616313190497" class="icon" viewBox="0 0 1024 1024" version="1.1" xmlns="http://www.w3.org/2000/svg" p-id="541" xmlns:xlink="http://www.w3.org/1999/xlink" width="200" height="200"><defs><style type="text/css"></style></defs><path d="M160 416h138.88a64 64 0 0 0 39.04-13.28C401.536 353.824 438.208 304.896 448 256c16-80 0-176 96-176 64 0 85.344 101.344 64 304h188.672a121.568 121.568 0 0 1 115.328 160c-18.816 56.448-50.08 170.976-93.76 343.552A96 96 0 0 1 725.12 960H160a64 64 0 0 1-64-64V480a64 64 0 0 1 64-64z m64 64a32 32 0 0 0-32 32v352a32 32 0 0 0 64 0V512a32 32 0 0 0-32-32z" p-id="542" fill="#707070"></path></svg>