<?xml version="1.0" standalone="no"?><!DOCTYPE svg PUBLIC "-//W3C//DTD SVG 1.1//EN" "http://www.w3.org/Graphics/SVG/1.1/DTD/svg11.dtd"><svg t="1620193886961" class="icon" viewBox="0 0 1024 1024" version="1.1" xmlns="http://www.w3.org/2000/svg" p-id="1699" xmlns:xlink="http://www.w3.org/1999/xlink" width="20" height="20"><defs><style type="text/css"></style></defs><path d="M924.23621932 877.12193043H535.08765856c-53.6870912-0.02761681-97.21119393-43.48267751-97.22500236-97.10072668V99.88805635c0.01380842-53.61804916 43.53791115-97.08691826 97.22500236-97.10072666h389.02428509c53.70089962 0 97.23881076 43.46886912 97.25261916 97.10072666V780.02120375a96.8784113 96.8784113 0 0 1-28.40389573 68.68302254 97.11867762 97.11867762 0 0 1-68.75206459 28.41770414h0.02761683z m24.27518166-752.86203354c0-26.85735402-21.78966818-48.61940537-48.67463901-48.61940537H559.48711591c-26.88497083 0-48.67463902 21.76205138-48.67463901 48.61940537v461.40796103h437.69892408V124.25989689z m0 534.27493126H510.8124769v97.10072667c0 26.85735402 21.78966818 48.61940537 48.67463901 48.61940537h340.47392174c26.85735402 0 48.6470222-21.76205138 48.64702219-48.61940537v-97.10072667h-0.09665886z m-218.84946205 121.4725672a48.6470222 48.6470222 0 0 1-42.14326192-24.26137327 48.56555259 48.56555259 0 0 1-0.04142522-48.59178857 48.66497312 48.66497312 0 0 1 42.1156451-24.31660688c26.87116241-0.02761681 48.6608306 21.72062615 48.67463901 48.55036333 0.02761681 26.8435456-21.73443455 48.60559698-48.60559697 48.61940539zM140.42954293 274.55061207c16.21107126-27.98964348 40.01676705-63.28393491 71.38947055-94.58759639 64.48526643-64.45764962 150.34594882-107.04278061 150.34594881-107.0427806 13.40796438-14.38836139 13.00752055-36.79940794-0.91135494-50.6906666-13.9188755-13.89125869-36.35753887-14.27789411-50.75970865-0.86992973-14.38836139 13.40796438-82.72617371 45.44347149-147.36333263 109.95635474-35.91566981 35.92947822-65.89372406 77.36851132-85.61213105 107.27752354l-60.28751033-34.3829365v194.33953745l194.57428038-83.23708482-71.36185374-40.73480427-0.0138084-0.02761682z m-43.01319164 165.39711378h243.12464372c13.03513737 0 25.07606935 6.94562933 31.59363802 18.21329047 6.51756868 11.26766112 6.51756868 25.1589198 0 36.4265809s-18.55850066 18.21329046-31.59363802 18.21329045H121.69153296c-26.85735402 0-48.6470222 21.76205138-48.64702221 48.6194054v340.05966948c0 26.82973718 21.74824297 48.59178857 48.64702221 48.59178856h656.54838613c13.46319803 0 24.30279849-10.93625932 24.30279849-24.24756486 0-13.00752055 6.94562933-25.03464412 18.24090727-31.5522128a36.54533323 36.54533323 0 0 1 36.48181454 0 36.39758325 36.39758325 0 0 1 18.24090728 31.5522128c-0.02761681 53.63185757-43.55171956 97.11453508-97.25261917 97.11453508H97.38873447c-53.6870912-0.02761681-97.19738554-43.48267751-97.22500235-97.11453508V537.04845253c0.01380842-53.61804916 43.53791115-97.08691826 97.22500235-97.10072668h0.02761682z m0 0" fill="#2c2c2c" p-id="1700"></path></svg>