<?xml version="1.0" standalone="no"?><!DOCTYPE svg PUBLIC "-//W3C//DTD SVG 1.1//EN" "http://www.w3.org/Graphics/SVG/1.1/DTD/svg11.dtd"><svg t="1616057618163" class="icon" viewBox="0 0 1024 1024" version="1.1" xmlns="http://www.w3.org/2000/svg" p-id="4301" xmlns:xlink="http://www.w3.org/1999/xlink" width="200" height="200"><defs><style type="text/css"></style></defs><path d="M742.685963 519.138584c54.991452-52.826136 89.416496-126.906342 89.416496-209.002105 0-159.975505-130.144082-290.119587-290.119587-290.119587s-290.119587 130.144082-290.119587 290.119587c0 78.229712 31.262004 149.194974 81.775468 201.427592C164.091242 582.142523 51.582819 745.774301 51.582819 926.148391c0 18.841114 15.273868 34.131355 34.131355 34.131355 18.841114 0 34.131355-15.291265 34.131355-34.131355 0-159.309332 103.913675-303.619042 258.616082-359.082238 5.377474-1.928932 9.850345-5.166673 13.467733-9.099239 43.848671 26.650987 95.096868 42.289152 150.053528 42.289152 49.266054 0 95.655594-12.421914 136.334062-34.177404 0.707105 0.308015 1.336438 0.722454 2.074242 0.98749C835.076186 622.530372 939.007257 766.840082 939.007257 926.148391c0 18.841114 15.273868 34.131355 34.131355 34.131355 18.841114 0 34.131355-15.291265 34.131355-34.131355C1007.269967 752.025679 902.466016 593.439824 742.685963 519.138584zM320.127018 310.136479c0-122.327046 99.520621-221.855854 221.855854-221.855854s221.855854 99.528807 221.855854 221.855854-99.520621 221.855854-221.855854 221.855854S320.127018 432.464549 320.127018 310.136479z" p-id="4302"></path></svg>