<?xml version="1.0" standalone="no"?><!DOCTYPE svg PUBLIC "-//W3C//DTD SVG 1.1//EN" "http://www.w3.org/Graphics/SVG/1.1/DTD/svg11.dtd"><svg t="1617341745629" class="icon" viewBox="0 0 1024 1024" version="1.1" xmlns="http://www.w3.org/2000/svg" p-id="3956" xmlns:xlink="http://www.w3.org/1999/xlink" width="200" height="200"><defs><style type="text/css"></style></defs><path d="M329.532 1022.96a232.673 232.673 0 0 1-169.443-51.668 106.877 106.877 0 0 1-33.523-70.864 142.89 142.89 0 0 1 32.306-98.413 74.239 74.239 0 0 1-58.14 6.085c-30.98-9.736-66.881-42.817-62.18-145.269l0.664-8.906a405.49 405.49 0 0 1 96.311-193.95A177.022 177.022 0 0 1 168.72 336.78C187.251 63.723 398.073-3.103 508.822 0.272c126.46-4.481 320.852 81.872 338.001 336.396a175.03 175.03 0 0 1 33.469 123.307 406.32 406.32 0 0 1 96.532 193.95c13 66.715 17.647 124.302-56.758 152.792a76.507 76.507 0 0 1-61.68-3.707 140.622 140.622 0 0 1 31.033 97.196 108.481 108.481 0 0 1-33.8 71.196 231.235 231.235 0 0 1-167.839 51.392h-16.596a349.286 349.286 0 0 1-164.353-50.23 344.307 344.307 0 0 1-160.426 50.23c-5.532 0.055-11.23 0.166-16.873 0.166zM189.74 680.257l22.128 44.753a527.58 527.58 0 0 0 30.426 53.494l18.421 28.323-29.651 16.596a79.162 79.162 0 0 0-40.439 73.132 44.255 44.255 0 0 0 14.162 29.264 197.435 197.435 0 0 0 141.12 33.524 249.435 249.435 0 0 0 134.481-47.409l9.46-9.902h33.8l9.404 9.349a262.324 262.324 0 0 0 138.63 47.962h16.596a176.303 176.303 0 0 0 122.864-33.192 45.804 45.804 0 0 0 14.881-30.204 78.056 78.056 0 0 0-40.106-72.634l-29.43-16.596 18.31-28.158a515.797 515.797 0 0 0 30.426-53.494l23.29-47.298 31.366 42.486a48.128 48.128 0 0 0 37.506 27.272c22.128-8.574 30.647-11.728 17.039-81.707a342.98 342.98 0 0 0-89.618-172.43l-9.902-10.29 1.162-14.161a114.566 114.566 0 0 0-22.128-96.2l-9.349-8.796-0.608-12.779C772.917 116.663 599.71 60.846 509.486 63.502c-92.328-2.545-265.975 54.213-276.984 287.66l-0.553 12.613-9.183 8.74a115.728 115.728 0 0 0-22.128 96.477l1.107 14.051-9.847 10.234A342.98 342.98 0 0 0 103 663.55c-2.434 57.532 9.072 81.375 17.536 83.975a56.15 56.15 0 0 0 38.06-28.6z" p-id="3957"></path></svg>