<?xml version="1.0" standalone="no"?><!DOCTYPE svg PUBLIC "-//W3C//DTD SVG 1.1//EN" "http://www.w3.org/Graphics/SVG/1.1/DTD/svg11.dtd"><svg t="1620809692190" class="icon" viewBox="0 0 1188 1024" version="1.1" xmlns="http://www.w3.org/2000/svg" p-id="1897" xmlns:xlink="http://www.w3.org/1999/xlink" width="23.203125" height="20"><defs><style type="text/css"></style></defs><path d="M594.285714 0C922.514286 0 1188.571429 219.538286 1188.571429 490.368c0 270.811429-266.057143 490.368-594.285715 490.368-108.946286 0-211.053714-24.192-298.843428-66.413714l-25.563429 20.114285c-94.592 73.417143-181.668571 128.548571-156.397714 54.381715l2.157714-5.961143c17.225143-44.763429 28.214857-100.809143 32.969143-168.118857C56.118857 728.32 0 614.765714 0 490.368 0 219.556571 266.057143 0 594.285714 0z m0 54.857143C294.290286 54.857143 54.857143 252.416 54.857143 490.368c0 102.784 44.489143 200.484571 125.092571 278.491429l6.107429 5.814857 19.108571 17.846857-1.828571 26.093714c-2.56 36.169143-6.838857 69.577143-12.909714 100.205714l-1.609143 7.771429 1.810285-1.28a1767.387429 1767.387429 0 0 0 64.109715-48.713143l33.462857-26.642286 31.012571 14.921143c82.541714 39.698286 176.786286 61.001143 275.072 61.001143 299.995429 0 539.428571-197.558857 539.428572-435.510857S894.281143 54.857143 594.285714 54.857143zM329.142857 420.571429a73.142857 73.142857 0 1 1 0 146.285714 73.142857 73.142857 0 0 1 0-146.285714z m274.285714 0a73.142857 73.142857 0 1 1 0 146.285714 73.142857 73.142857 0 0 1 0-146.285714z m274.285715 0a73.142857 73.142857 0 1 1 0 146.285714 73.142857 73.142857 0 0 1 0-146.285714z" p-id="1898"></path></svg>