<?xml version="1.0" standalone="no"?><!DOCTYPE svg PUBLIC "-//W3C//DTD SVG 1.1//EN" "http://www.w3.org/Graphics/SVG/1.1/DTD/svg11.dtd"><svg t="1616127467594" class="icon" viewBox="0 0 1024 1024" version="1.1" xmlns="http://www.w3.org/2000/svg" p-id="2141" xmlns:xlink="http://www.w3.org/1999/xlink" width="200" height="200"><defs><style type="text/css"></style></defs><path d="M420.6 740.6c-84.7 0-164.3-33-224.2-92.8-59.9-59.9-92.8-139.5-92.8-224.2s33-164.3 92.8-224.2 139.5-92.8 224.2-92.8 164.3 33 224.2 92.8c59.9 59.9 92.8 139.5 92.8 224.2s-33 164.3-92.8 224.2c-59.9 59.9-139.5 92.8-224.2 92.8z m0-570c-67.6 0-131.1 26.3-178.9 74.1-47.8 47.8-74.1 111.3-74.1 178.9s26.3 131.1 74.1 178.9c47.8 47.8 111.3 74.1 178.9 74.1s131.1-26.3 178.9-74.1c47.8-47.8 74.1-111.3 74.1-178.9s-26.3-131.1-74.1-178.9c-47.8-47.7-111.3-74.1-178.9-74.1z" fill="#B3B3B3" p-id="2142"></path><path d="M825.4 861.2c-8.2 0-16.4-3.1-22.6-9.4L599.4 648.5c-12.5-12.5-12.5-32.8 0-45.3s32.8-12.5 45.3 0L848 806.6c12.5 12.5 12.5 32.8 0 45.3-6.2 6.2-14.4 9.3-22.6 9.3z" fill="#B3B3B3" p-id="2143"></path></svg>